<svg width="450" height="98" viewBox="0 0 450 98" fill="none" xmlns="http://www.w3.org/2000/svg">
<path d="M8.64 96V6.4H20.5867V42.24H21.0133C23.0756 38.5422 25.9556 35.7333 29.6533 33.8133C33.3511 31.8222 37.7244 30.8267 42.7733 30.8267C50.8089 30.8267 57.1733 33.2089 61.8667 37.9733C66.6311 42.6667 69.0133 48.96 69.0133 56.8533V96H57.0667V58.88C57.0667 53.12 55.5022 48.7467 52.3733 45.76C49.3156 42.7733 44.8 41.28 38.8267 41.28C32.9244 41.28 28.4089 42.7733 25.28 45.76C22.1511 48.7467 20.5867 53.12 20.5867 58.88V96H8.64ZM156.927 96V44.3733H150.74V32H163.54V43.9467H168.02C169.798 40.0356 172.536 36.9778 176.233 34.7733C180.002 32.5689 184.411 31.4667 189.46 31.4667H194.687V41.7067H188.82C182.42 41.7067 177.478 43.5911 173.993 47.36C170.509 51.1289 168.767 56.2133 168.767 62.6133V96H156.927ZM207.775 96V32H219.722V96H207.775ZM213.748 23.2533C211.757 23.2533 210.051 22.5422 208.628 21.12C207.206 19.6978 206.495 17.9911 206.495 16C206.495 14.0089 207.206 12.3022 208.628 10.88C210.051 9.45778 211.757 8.74667 213.748 8.74667C215.739 8.74667 217.446 9.45778 218.868 10.88C220.291 12.3022 221.002 14.0089 221.002 16C221.002 17.9911 220.291 19.6978 218.868 21.12C217.446 22.5422 215.739 23.2533 213.748 23.2533ZM234.542 96V87.8933L273.155 41.6H236.462V32H287.448V40.1067L248.835 86.4H288.088V96H234.542ZM329.422 97.28C322.808 97.28 317.013 95.9289 312.035 93.2267C307.128 90.4533 303.324 86.5778 300.622 81.6C297.919 76.6222 296.568 70.7556 296.568 64C296.568 57.2444 297.919 51.3778 300.622 46.4C303.324 41.4222 307.128 37.5822 312.035 34.88C317.013 32.1067 322.808 30.72 329.422 30.72C336.248 30.72 342.079 32.0711 346.915 34.7733C351.822 37.4756 355.591 41.3156 358.222 46.2933C360.924 51.2711 362.275 57.1733 362.275 64C362.275 70.7556 360.924 76.6578 358.222 81.7067C355.591 86.6844 351.822 90.5244 346.915 93.2267C342.008 95.9289 336.177 97.28 329.422 97.28ZM329.422 86.8267C336.035 86.8267 341.155 84.8356 344.782 80.8533C348.479 76.8 350.328 71.1822 350.328 64C350.328 56.7467 348.479 51.1289 344.782 47.1467C341.155 43.1644 336.035 41.1733 329.422 41.1733C322.879 41.1733 317.759 43.2 314.062 47.2533C310.364 51.2356 308.515 56.8178 308.515 64C308.515 71.1822 310.364 76.8 314.062 80.8533C317.759 84.8356 322.879 86.8267 329.422 86.8267ZM379.998 96V44.3733H373.812V32H386.612V41.8133H391.092C393.296 38.2578 396.318 35.5556 400.158 33.7067C403.998 31.7867 408.514 30.8267 413.705 30.8267C421.954 30.8267 428.461 33.2089 433.225 37.9733C437.989 42.6667 440.372 48.96 440.372 56.8533V96H428.425V58.88C428.425 53.12 426.861 48.7467 423.732 45.76C420.674 42.7733 416.158 41.28 410.185 41.28C404.283 41.28 399.767 42.7733 396.638 45.76C393.509 48.7467 391.945 53.12 391.945 58.88V96H379.998Z" fill="#414141"/>
<path d="M140.508 64.2739C141.025 60.1443 139.743 55.4173 138.188 51.5709C136.632 47.7245 134.352 44.2295 131.478 41.2856C128.604 38.3417 125.192 36.0065 121.437 34.4133C117.682 32.82 113.657 32 109.592 32C105.528 32 101.503 32.82 97.7474 34.4133C93.9922 36.0065 90.5801 38.3417 87.7059 41.2856C84.8318 44.2295 82.5519 47.7245 80.9964 51.5709C79.441 55.4173 78.1423 60.1691 78.6787 64.296L87.3729 63.1103C86.9884 60.1528 87.9849 57.7652 89.0996 55.0088C90.2143 52.2524 91.8482 49.7478 93.9079 47.6381C95.9676 45.5284 98.4128 43.8549 101.104 42.7132C103.795 41.5714 106.679 40.9838 109.592 40.9838C112.505 40.9838 115.389 41.5714 118.08 42.7132C120.772 43.8549 123.217 45.5284 125.276 47.6381C127.336 49.7478 128.97 52.2524 130.085 55.0088C131.199 57.7652 132.179 60.173 131.809 63.1324L140.508 64.2739Z" fill="#414141"/>
<path d="M140.202 68.9973C139.103 76.505 135.411 83.3596 129.796 88.3149C124.181 93.2702 117.016 95.9971 109.604 96C102.193 96.0029 95.0259 93.2815 89.4072 88.3306C83.7885 83.3796 80.0908 76.5279 78.9863 69.021C78.9863 69.021 97.5051 64.3016 109.593 64.2969C121.68 64.2922 140.202 68.9973 140.202 68.9973Z" fill="#414141"/>
</svg>
