<svg width="278" height="278" viewBox="0 0 278 278" fill="none" xmlns="http://www.w3.org/2000/svg">
<path d="M277.479 141.504C279.792 123.398 274.053 102.672 267.086 85.8078C260.119 68.9434 249.908 53.62 237.035 40.7125C224.162 27.8051 208.88 17.5663 192.06 10.5808C175.241 3.59537 157.214 -7.97904e-07 139.009 0C120.804 7.97904e-07 102.777 3.59538 85.9577 10.5808C69.1384 17.5663 53.856 27.8051 40.9831 40.7125C28.1101 53.62 17.8988 68.9434 10.932 85.8078C3.9652 102.672 -1.85154 123.506 0.551274 141.601L39.4912 136.402C37.7693 123.435 42.2327 112.967 47.2253 100.881C52.2179 88.7958 59.5357 77.8146 68.7608 68.5647C77.9859 59.3149 88.9377 51.9775 100.991 46.9715C113.044 41.9655 125.963 39.389 139.009 39.389C152.055 39.389 164.974 41.9655 177.027 46.9715C189.08 51.9775 200.032 59.3149 209.257 68.5647C218.482 77.8146 225.8 88.7958 230.793 100.881C235.785 112.967 240.172 123.524 238.514 136.499L277.479 141.504Z" fill="black"/>
<path d="M276.105 159.609C271.183 192.526 254.644 222.58 229.495 244.306C204.346 266.032 172.256 277.989 139.06 278.001C105.864 278.014 73.7652 266.082 48.5996 244.375C23.434 222.668 6.87244 192.627 1.92578 159.713C1.92578 159.713 84.8694 139.021 139.008 139C193.146 138.979 276.105 159.609 276.105 159.609Z" fill="black"/>
</svg>
