<svg xmlns="http://www.w3.org/2000/svg" viewBox="-12.00 -12.00 967.06 304.00">
  <defs>
    <mask id="b" maskUnits="userSpaceOnUse" x="0" y="0" width="100" height="100">
      <circle cx="50" cy="50" r="46" fill="white"/>
      <path d="M-8 70 Q50 24 108 70 L108 52 Q50 6 -8 52 Z" fill="black"/>
    </mask>
  </defs>
  <g transform="scale(2.80000)"><rect width="100" height="100" fill="#FAEDCD" mask="url(#b)"/></g>
  <path d="M243.0 0 22.0 660H160.0L327.0 108H339.0L507.0 660H643.0L421.0 0ZM743.0 0V660H870.0V0ZM825.0 0V104H1236.0V0ZM825.0 287V383H1187.0V287ZM825.0 556V660H1234.0V556ZM1353.0 0V660H1479.0V0ZM1382.0 0V108H1768.0V0ZM2141.0 -13Q2069.0 -13 2013.0 10.0Q1957.0 33 1917.5 76.5Q1878.0 120 1857.0 183.0Q1836.0 246 1836.0 327Q1836.0 444 1876.0 520.5Q1916.0 597 1986.0 635.0Q2056.0 673 2145.0 673Q2214.0 673 2270.0 650.5Q2326.0 628 2365.5 584.5Q2405.0 541 2427.0 476.5Q2449.0 412 2449.0 329Q2449.0 246 2427.5 182.5Q2406.0 119 2366.0 75.5Q2326.0 32 2269.5 9.5Q2213.0 -13 2141.0 -13ZM2144.0 89Q2201.0 89 2239.5 116.5Q2278.0 144 2298.5 196.0Q2319.0 248 2319.0 323Q2319.0 400 2298.0 455.0Q2277.0 510 2237.5 538.5Q2198.0 567 2141.0 567Q2087.0 567 2047.5 539.5Q2008.0 512 1987.0 458.5Q1966.0 405 1966.0 328Q1966.0 270 1978.0 225.5Q1990.0 181 2012.5 151.0Q2035.0 121 2068.5 105.0Q2102.0 89 2144.0 89Z" fill="#FAEDCD" transform="translate(374.90,216.56) scale(0.23200,-0.23200)"/>
</svg>
